<svg xmlns="http://www.w3.org/2000/svg" width="483.168" height="512" viewBox="0 0 483.168 512">
  <g id="experienced_icon" transform="translate(-14.416)">
    <path id="Path_1" data-name="Path 1" d="M181.022,142.59l-8.659,3.138a40.789,40.789,0,0,0-26.021,30.517l-2.938,15.4a25.966,25.966,0,0,0,25.5,30.858h75.057a25.974,25.974,0,0,0,25.573-30.542l-2.74-15.315a40.7,40.7,0,0,0-26.108-31l-9.18-3.327v-13.53a7.455,7.455,0,0,0-.092-1.115,36.8,36.8,0,0,0,10.533-25.627V81.88a35.69,35.69,0,0,0-71.381,0v20.787a35.6,35.6,0,0,0,10.515,25.188,7.433,7.433,0,0,0-.063.925Zm71.008,36.692,2.74,15.317a10.973,10.973,0,0,1-10.807,12.9H168.906a10.964,10.964,0,0,1-10.772-13.035l2.938-15.4a25.711,25.711,0,0,1,16.4-19.236l5.672-2.055c.142.146.285.293.439.428a34.6,34.6,0,0,0,45.353.016,7.4,7.4,0,0,0,.651-.65l5.983,2.169A25.65,25.65,0,0,1,252.03,179.282Zm-66.46-97.4a20.676,20.676,0,0,1,40.7-5.147c-.964.471-1.953.916-2.966,1.321-9.222,3.692-16.671,3.2-18.8,1.71a7.5,7.5,0,1,0-8.613,12.281c3.663,2.569,8.635,3.853,14.309,3.853a49.91,49.91,0,0,0,16.745-3.19v9.329a21.72,21.72,0,0,1-6.506,15.4,20.961,20.961,0,0,1-6.462,4.337q-.247.095-.486.205a19.358,19.358,0,0,1-7.644,1.369,20.789,20.789,0,0,1-20.281-20.684Zm19.993,56.469c.229,0,.456.006.685.006a34.8,34.8,0,0,0,10.261-1.544v12a19.584,19.584,0,0,1-20.485-.006V136.833A35.205,35.205,0,0,0,205.563,138.349Z" fill="#fed265"/>
    <path id="Path_2" data-name="Path 2" d="M88.264,350.9h233.57a7.5,7.5,0,0,0,0-15H88.264a7.5,7.5,0,0,0,0,15Z" fill="#fed265"/>
    <path id="Path_3" data-name="Path 3" d="M88.264,391.345h233.57a7.5,7.5,0,0,0,0-15H88.264a7.5,7.5,0,0,0,0,15Z" fill="#fed265"/>
    <path id="Path_4" data-name="Path 4" d="M88.264,431.784h233.57a7.5,7.5,0,0,0,0-15H88.264a7.5,7.5,0,1,0,0,15Z" fill="#fed265"/>
    <path id="Path_5" data-name="Path 5" d="M88.264,472.225h233.57a7.5,7.5,0,0,0,0-15H88.264a7.5,7.5,0,0,0,0,15Z" fill="#fed265"/>
    <path id="Path_6" data-name="Path 6" d="M80.764,262.524a7.5,7.5,0,0,0,7.5,7.5h233.57a7.5,7.5,0,0,0,0-15H88.264a7.5,7.5,0,0,0-7.5,7.5Z" fill="#fed265"/>
    <path id="Path_7" data-name="Path 7" d="M88.264,310.464h233.57a7.5,7.5,0,0,0,0-15H88.264a7.5,7.5,0,0,0,0,15Z" fill="#fed265"/>
    <path id="Path_8" data-name="Path 8" d="M60.569,350.932a7.528,7.528,0,1,0-7.528-7.528A7.528,7.528,0,0,0,60.569,350.932Z" fill="#fed265"/>
    <path id="Path_9" data-name="Path 9" d="M60.569,270.052a7.528,7.528,0,1,0-7.528-7.528A7.528,7.528,0,0,0,60.569,270.052Z" fill="#fed265"/>
    <path id="Path_10" data-name="Path 10" d="M60.569,310.492a7.528,7.528,0,1,0-7.528-7.528A7.528,7.528,0,0,0,60.569,310.492Z" fill="#fed265"/>
    <path id="Path_11" data-name="Path 11" d="M60.569,391.372a7.528,7.528,0,1,0-7.528-7.528A7.528,7.528,0,0,0,60.569,391.372Z" fill="#fed265"/>
    <path id="Path_12" data-name="Path 12" d="M60.569,431.813a7.528,7.528,0,1,0-7.528-7.528A7.528,7.528,0,0,0,60.569,431.813Z" fill="#fed265"/>
    <path id="Path_13" data-name="Path 13" d="M60.569,472.253a7.528,7.528,0,1,0-7.528-7.528A7.528,7.528,0,0,0,60.569,472.253Z" fill="#fed265"/>
    <path id="Path_14" data-name="Path 14" d="M485.63,118.121c-3.026-3.83-5.886-7.449-7.269-10.783-1.492-3.6-2.08-8.354-2.7-13.39-1.091-8.822-2.327-18.821-9.3-25.8s-16.978-8.213-25.8-9.3c-5.037-.622-9.794-1.21-13.393-2.7-3.335-1.383-6.953-4.241-10.784-7.268-5.271-4.165-11.068-8.738-17.922-10.813V35.794A35.836,35.836,0,0,0,362.658,0H50.214A35.837,35.837,0,0,0,14.416,35.8V64.744a7.5,7.5,0,0,0,15,0V35.8A20.82,20.82,0,0,1,50.214,15H362.658a20.82,20.82,0,0,1,20.8,20.8v2.27c-6.852,2.076-12.647,6.647-17.918,10.812-3.831,3.026-7.449,5.885-10.783,7.268-3.6,1.491-8.356,2.079-13.393,2.7-8.822,1.09-18.821,2.326-25.8,9.3s-8.215,16.977-9.306,25.8c-.622,5.035-1.21,9.791-2.7,13.39-1.383,3.334-4.242,6.953-7.269,10.783-5.6,7.091-11.954,15.128-11.954,25.417s6.351,18.326,11.954,25.417c3.026,3.83,5.886,7.449,7.269,10.783,1.492,3.6,2.08,8.354,2.7,13.391,1.091,8.821,2.327,18.82,9.3,25.8s16.978,8.213,25.8,9.3c2.63.325,5.179.644,7.532,1.084V342.682a11.516,11.516,0,0,0,18.619,9.067l15.943-12.483v136.94a20.82,20.82,0,0,1-20.8,20.8H50.214a20.82,20.82,0,0,1-20.8-20.8V97.771a7.5,7.5,0,0,0-15,0V476.205A35.837,35.837,0,0,0,50.214,512H362.658a35.837,35.837,0,0,0,35.8-35.795V339.265L414.4,351.747a11.523,11.523,0,0,0,18.629-9.066v-83.7a7.5,7.5,0,0,0-15,0v76.555L398.091,319.93a11.53,11.53,0,0,0-14.24-.026l-19.959,15.627V236.906q.816.639,1.645,1.294c7.092,5.6,15.13,11.953,25.42,11.953s18.327-6.35,25.419-11.952c3.831-3.026,7.45-5.886,10.784-7.269,3.6-1.491,8.356-2.079,13.393-2.7,8.822-1.09,18.821-2.326,25.8-9.3s8.213-16.977,9.3-25.8c.623-5.036,1.211-9.792,2.7-13.391,1.383-3.334,4.242-6.953,7.269-10.783,5.6-7.091,11.954-15.128,11.954-25.417s-6.351-18.326-11.954-25.417Zm-11.769,41.534c-3.528,4.465-7.176,9.081-9.355,14.337-2.273,5.48-3.016,11.487-3.734,17.3-.871,7.046-1.693,13.7-5.023,17.031s-9.987,4.152-17.034,5.023c-5.81.718-11.816,1.46-17.3,3.733-5.256,2.179-9.872,5.826-14.337,9.354-5.679,4.485-11.042,8.723-16.121,8.723s-10.442-4.237-16.121-8.723c-4.465-3.527-9.081-7.175-14.337-9.354-.362-.15-1.618-.628-1.889-.712-4.957-1.724-10.26-2.385-15.41-3.021-7.047-.871-13.7-1.694-17.034-5.024s-4.152-9.984-5.023-17.029c-.718-5.81-1.46-11.815-3.733-17.3-2.18-5.256-5.827-9.872-9.355-14.337-4.485-5.678-8.723-11.04-8.723-16.117s4.237-10.439,8.723-16.117c3.528-4.465,7.176-9.081,9.355-14.337,2.273-5.48,3.016-11.487,3.733-17.3.871-7.046,1.694-13.7,5.024-17.031s9.987-4.152,17.034-5.023c5.81-.718,11.816-1.46,17.3-3.733,5.256-2.179,9.872-5.826,14.337-9.354,5.667-4.477,11.021-8.7,16.091-8.721h.058c5.071.015,10.425,4.244,16.093,8.721,4.465,3.527,9.081,7.175,14.337,9.354,5.481,2.273,11.489,3.016,17.3,3.733,7.047.871,13.7,1.694,17.033,5.024s4.153,9.984,5.024,17.03c.718,5.809,1.46,11.815,3.733,17.3,2.18,5.256,5.827,9.872,9.355,14.337,4.485,5.678,8.723,11.04,8.723,16.117s-4.237,10.44-8.723,16.117Z" fill="#fed265"/>
    <path id="Path_15" data-name="Path 15" d="M439.109,119.7l-25.522-7.221L398.83,90.443a9.475,9.475,0,0,0-15.744,0l-14.757,22.04-25.524,7.222a9.473,9.473,0,0,0-4.864,14.973l16.4,20.843-1.018,26.5a9.466,9.466,0,0,0,12.735,9.259l24.895-9.158,24.893,9.157a9.473,9.473,0,0,0,12.738-9.254l-1.018-26.5,16.4-20.843a9.475,9.475,0,0,0-4.864-14.973Zm-24.587,28.143a9.49,9.49,0,0,0-2.018,6.219l.778,20.284-19.053-7.009a9.486,9.486,0,0,0-6.543,0l-19.055,7.01.779-20.291a9.5,9.5,0,0,0-2.023-6.217L354.833,131.89l19.539-5.527a9.487,9.487,0,0,0,5.289-3.845l11.3-16.87,11.294,16.868a9.5,9.5,0,0,0,5.294,3.848l19.535,5.526Z" fill="#fed265"/>
  </g>
</svg>
