<svg xmlns="http://www.w3.org/2000/svg" width="460" height="512" viewBox="0 0 460 512">
  <g id="office_icon" transform="translate(-26)">
    <path id="Path_1" data-name="Path 1" d="M476,120H286V10A10,10,0,0,0,276,0H36A10,10,0,0,0,26,10V502a10,10,0,0,0,10,10H476a10,10,0,0,0,10-10V130a10,10,0,0,0-10-10ZM286,140H466V392H286ZM126,492V412h60v80Zm70-100H116a10,10,0,0,0-10,10v90H46V20H266V492H206V402A10,10,0,0,0,196,392Zm90,100V412H466v80Z" fill="#fed265"/>
    <path id="Path_2" data-name="Path 2" d="M146,80h20a10,10,0,0,0,10-10V50a10,10,0,0,0-10-10H146a10,10,0,0,0-10,10V70A10,10,0,0,0,146,80Z" fill="#fed265"/>
    <path id="Path_3" data-name="Path 3" d="M146,150h20a10,10,0,0,0,10-10V120a10,10,0,0,0-10-10H146a10,10,0,0,0-10,10v20A10,10,0,0,0,146,150Z" fill="#fed265"/>
    <path id="Path_4" data-name="Path 4" d="M146,220h20a10,10,0,0,0,10-10V190a10,10,0,0,0-10-10H146a10,10,0,0,0-10,10v20A10,10,0,0,0,146,220Z" fill="#fed265"/>
    <path id="Path_5" data-name="Path 5" d="M146,290h20a10,10,0,0,0,10-10V260a10,10,0,0,0-10-10H146a10,10,0,0,0-10,10v20A10,10,0,0,0,146,290Z" fill="#fed265"/>
    <path id="Path_6" data-name="Path 6" d="M146,360h20a10,10,0,0,0,10-10V330a10,10,0,0,0-10-10H146a10,10,0,0,0-10,10v20A10,10,0,0,0,146,360Z" fill="#fed265"/>
    <path id="Path_7" data-name="Path 7" d="M76,80H96a10,10,0,0,0,10-10V50A10,10,0,0,0,96,40H76A10,10,0,0,0,66,50V70A10,10,0,0,0,76,80Z" fill="#fed265"/>
    <path id="Path_8" data-name="Path 8" d="M76,150H96a10,10,0,0,0,10-10V120a10,10,0,0,0-10-10H76a10,10,0,0,0-10,10v20A10,10,0,0,0,76,150Z" fill="#fed265"/>
    <path id="Path_9" data-name="Path 9" d="M76,220H96a10,10,0,0,0,10-10V190a10,10,0,0,0-10-10H76a10,10,0,0,0-10,10v20A10,10,0,0,0,76,220Z" fill="#fed265"/>
    <path id="Path_10" data-name="Path 10" d="M76,290H96a10,10,0,0,0,10-10V260a10,10,0,0,0-10-10H76a10,10,0,0,0-10,10v20A10,10,0,0,0,76,290Z" fill="#fed265"/>
    <path id="Path_11" data-name="Path 11" d="M76,360H96a10,10,0,0,0,10-10V330a10,10,0,0,0-10-10H76a10,10,0,0,0-10,10v20A10,10,0,0,0,76,360Z" fill="#fed265"/>
    <path id="Path_12" data-name="Path 12" d="M236,40H216a10,10,0,0,0-10,10V70a10,10,0,0,0,10,10h20a10,10,0,0,0,10-10V50A10,10,0,0,0,236,40Z" fill="#fed265"/>
    <path id="Path_13" data-name="Path 13" d="M236,110H216a10,10,0,0,0-10,10v20a10,10,0,0,0,10,10h20a10,10,0,0,0,10-10V120A10,10,0,0,0,236,110Z" fill="#fed265"/>
    <path id="Path_14" data-name="Path 14" d="M236,180H216a10,10,0,0,0-10,10v20a10,10,0,0,0,10,10h20a10,10,0,0,0,10-10V190A10,10,0,0,0,236,180Z" fill="#fed265"/>
    <path id="Path_15" data-name="Path 15" d="M236,250H216a10,10,0,0,0-10,10v20a10,10,0,0,0,10,10h20a10,10,0,0,0,10-10V260A10,10,0,0,0,236,250Z" fill="#fed265"/>
    <path id="Path_16" data-name="Path 16" d="M236,320H216a10,10,0,0,0-10,10v20a10,10,0,0,0,10,10h20a10,10,0,0,0,10-10V330A10,10,0,0,0,236,320Z" fill="#fed265"/>
    <path id="Path_17" data-name="Path 17" d="M421,180H401a10,10,0,0,0-10,10v20a10,10,0,0,0,10,10h20a10,10,0,0,0,10-10V190a10,10,0,0,0-10-10Z" fill="#fed265"/>
    <path id="Path_18" data-name="Path 18" d="M421,250H401a10,10,0,0,0-10,10v20a10,10,0,0,0,10,10h20a10,10,0,0,0,10-10V260a10,10,0,0,0-10-10Z" fill="#fed265"/>
    <path id="Path_19" data-name="Path 19" d="M421,320H401a10,10,0,0,0-10,10v20a10,10,0,0,0,10,10h20a10,10,0,0,0,10-10V330a10,10,0,0,0-10-10Z" fill="#fed265"/>
    <path id="Path_20" data-name="Path 20" d="M351,180H331a10,10,0,0,0-10,10v20a10,10,0,0,0,10,10h20a10,10,0,0,0,10-10V190a10,10,0,0,0-10-10Z" fill="#fed265"/>
    <path id="Path_21" data-name="Path 21" d="M351,250H331a10,10,0,0,0-10,10v20a10,10,0,0,0,10,10h20a10,10,0,0,0,10-10V260a10,10,0,0,0-10-10Z" fill="#fed265"/>
    <path id="Path_22" data-name="Path 22" d="M351,320H331a10,10,0,0,0-10,10v20a10,10,0,0,0,10,10h20a10,10,0,0,0,10-10V330a10,10,0,0,0-10-10Z" fill="#fed265"/>
  </g>
</svg>
