<svg xmlns="http://www.w3.org/2000/svg" width="389.052" height="421.42" viewBox="0 0 389.052 421.42">
  <g id="paint_roller_icon" transform="translate(-16.185 0)">
    <g id="Group_1" data-name="Group 1">
      <path id="Path_1" data-name="Path 1" d="M366.017,15.7A15.7,15.7,0,0,0,350.316,0H31.886a15.588,15.588,0,0,0-8.778,2.689A15.794,15.794,0,0,0,18.87,6.927,15.607,15.607,0,0,0,16.185,15.7V88.1a15.608,15.608,0,0,0,2.685,8.778,15.83,15.83,0,0,0,4.238,4.24,15.629,15.629,0,0,0,8.778,2.683h318.43a15.693,15.693,0,0,0,15.7-15.7V63.67h15.665v52.151L194.13,150.062a11.768,11.768,0,0,0-9.656,11.59V212.1H172.506a15.7,15.7,0,0,0-15.7,15.7V405.72a15.7,15.7,0,0,0,15.7,15.7h47.488a15.7,15.7,0,0,0,15.7-15.7V227.8a15.7,15.7,0,0,0-15.7-15.7H208.032V171.478L395.58,137.236a11.767,11.767,0,0,0,9.657-11.587V51.9a11.777,11.777,0,0,0-11.772-11.776H366.033V15.7ZM223.148,50.293c15.184,0,15.184,23.549,0,23.549S207.952,50.293,223.148,50.293Zm121.633-35.6a11.963,11.963,0,0,1-10.427,8.127,85.554,85.554,0,0,0-13.737,2.48c-1.379,10.982-4.537,21.678-4.585,32.841-.028,10.958-16.943,17.08-21.94,5.941-11.485-25.6-21.572-31.314-48.281-31.024a122.745,122.745,0,0,1-46.092-8.267,129.379,129.379,0,0,1-20.293,1.356c-4.727,16.038,2.707,29.425-3.8,45.588-3.57,8.871-16.07,12.54-21.524,2.81-6.973-12.435-7.388-24.249-11.3-31.539-.724,5.194-4.46,9.9-11.243,9.9-9.716,0-13.19-9.632-10.463-16.579-2.354.376-4.877.871-7.754,1.591-14.194,3.55-26.193-.008-38.045-3.124V56.762a11.776,11.776,0,1,1-23.552,0V31.977c0-.2.054-.4.061-.6a45.786,45.786,0,0,0-21.6,6.847,10.332,10.332,0,0,1-2.242.966V15.7a3.926,3.926,0,0,1,3.925-3.925h318.43a3.883,3.883,0,0,1,3.812,3.34c-3.11-.165-6.22-.322-9.35-.426Z" fill="#fed265"/>
    </g>
  </g>
</svg>
