<svg xmlns="http://www.w3.org/2000/svg" width="512.019" height="512.021" viewBox="0 0 512.019 512.021">
  <g id="phone_icon" transform="translate(0)">
    <path id="Path_1" data-name="Path 1" d="M367.988,512.021a142.652,142.652,0,0,1-48.941-8.744,521.88,521.88,0,0,1-189.508-120.8A521.846,521.846,0,0,1,8.744,192.974a141.622,141.622,0,0,1-7.226-69.612A145.228,145.228,0,0,1,76.158,17.053,142.575,142.575,0,0,1,144.423,0a16,16,0,0,1,15.645,12.647l25.114,117.2a16,16,0,0,1-4.331,14.667l-42.913,42.912A421.165,421.165,0,0,0,324.594,374.081l42.912-42.913a16.01,16.01,0,0,1,14.667-4.331l117.2,25.114A16,16,0,0,1,512.019,367.6a142.568,142.568,0,0,1-17.054,68.266A145.228,145.228,0,0,1,388.656,510.5a142.323,142.323,0,0,1-20.668,1.519ZM131.639,32.7A112.115,112.115,0,0,0,38.821,182.049,485.3,485.3,0,0,0,329.972,473.2a112.115,112.115,0,0,0,149.349-92.818l-95.341-20.43-44.816,44.816a16,16,0,0,1-18.117,3.168A453.054,453.054,0,0,1,104.085,190.974a16,16,0,0,1,3.168-18.117l44.816-44.816Z" fill="#fed265"/>
  </g>
</svg>
