<svg xmlns="http://www.w3.org/2000/svg" width="410.188" height="376.007" viewBox="0 0 410.188 376.007">
  <g id="premium_icon" transform="translate(0.001 -1)">
    <path id="Path_1" data-name="Path 1" d="M205.1,377a8.546,8.546,0,0,1-6.546-3.042L2.012,140.514a8.546,8.546,0,0,1-.957-9.622L69.966,5.444A8.546,8.546,0,0,1,77.452,1H332.758a8.546,8.546,0,0,1,7.486,4.444l68.894,125.448a8.546,8.546,0,0,1-.957,9.605L211.634,373.944A8.546,8.546,0,0,1,205.1,377ZM18.812,133.986,205.1,355.2,391.4,133.986,327.7,18.091H82.511Z" transform="translate(0 0.003)" fill="#fed265"/>
    <path id="Path_2" data-name="Path 2" d="M393.344,25.591H8.8A8.546,8.546,0,0,1,8.8,8.5H393.344a8.546,8.546,0,0,1,0,17.091Z" transform="translate(4.035 120.686)" fill="#fed265"/>
    <path id="Path_3" data-name="Path 3" d="M187.2,141.471a8.546,8.546,0,0,1-6.99-3.64L100.682,24.466,22.234,137.233A8.546,8.546,0,1,1,8.22,127.474L93.675,4.657A8.546,8.546,0,0,1,100.682,1h0a8.546,8.546,0,0,1,6.99,3.64l86.515,123.38a8.546,8.546,0,0,1-6.99,13.451Z" transform="translate(104.422 0.003)" fill="#fed265"/>
    <path id="Path_4" data-name="Path 4" d="M140.087,377.007a8.546,8.546,0,0,1-8.05-5.675L4.384,12.42A8.546,8.546,0,0,1,20.45,6.677L140.087,342.961,259.725,6.677a8.547,8.547,0,1,1,16.1,5.743L148.171,371.332A8.546,8.546,0,0,1,140.087,377.007Z" transform="translate(65.018 0)" fill="#fed265"/>
  </g>
</svg>
