<svg xmlns="http://www.w3.org/2000/svg" width="401.681" height="511.998" viewBox="0 0 401.681 511.998">
  <g id="surface1" transform="translate(-0.499 -0.002)">
    <path id="Path_1" data-name="Path 1" d="M335.176,190.992c0-73.8-60.039-133.836-133.836-133.836S67.5,117.195,67.5,190.992s60.039,133.84,133.84,133.84S335.176,264.793,335.176,190.992ZM201.34,309.832A118.838,118.838,0,1,1,320.176,190.994,118.838,118.838,0,0,1,201.34,309.832Zm0,0" fill="#fed265"/>
    <path id="Path_2" data-name="Path 2" d="M294.547,161.652a10.509,10.509,0,0,0-10.024-7.285h-55.89l-17.27-53.152a10.54,10.54,0,0,0-20.047,0l-17.269,53.156H118.156a10.538,10.538,0,0,0-6.195,19.063l45.215,32.851-17.27,53.153a10.54,10.54,0,0,0,16.219,11.785l45.215-32.852,45.215,32.852a10.539,10.539,0,0,0,16.218-11.785L245.5,206.285l45.215-32.851A10.512,10.512,0,0,0,294.547,161.652Zm-60.484,34.4a10.517,10.517,0,0,0-3.829,11.785l14.028,43.176-36.727-26.684a10.514,10.514,0,0,0-12.39,0l-36.727,26.684,14.027-43.18a10.514,10.514,0,0,0-3.828-11.781l-36.73-26.688h45.4a10.518,10.518,0,0,0,10.024-7.281l14.027-43.18,14.027,43.18a10.518,10.518,0,0,0,10.024,7.281h45.4Zm0,0" fill="#fed265"/>
    <path id="Path_3" data-name="Path 3" d="M400.641,439.113,330.316,315.652l12.321-3.953a34.394,34.394,0,0,0,23.828-34.519l-.934-17.879a19.4,19.4,0,0,1,5.532-14.594l12.558-12.762a34.4,34.4,0,0,0,5.055-41.64l-9.137-15.4a19.43,19.43,0,0,1-1.883-15.5l5.188-17.137a34.39,34.39,0,0,0-14.871-39.214l-15.246-9.391a19.4,19.4,0,0,1-8.868-12.844l-3.371-17.582A34.392,34.392,0,0,0,309.094,35.43L291.23,34.2a19.4,19.4,0,0,1-13.816-7.254l-11.16-14A34.4,34.4,0,0,0,225.531,2.91l-16.386,7.215h0a19.408,19.408,0,0,1-15.606,0L177.148,2.91a34.4,34.4,0,0,0-40.726,10.039l-11.156,14A19.4,19.4,0,0,1,111.449,34.2L93.586,35.43a34.394,34.394,0,0,0-31.4,27.816L58.82,80.828a19.427,19.427,0,0,1-8.867,12.844l-15.246,9.387a34.394,34.394,0,0,0-14.871,39.218l5.184,17.137a19.4,19.4,0,0,1-1.879,15.492L14,190.3a34.393,34.393,0,0,0,5.055,41.636L31.614,244.7a19.409,19.409,0,0,1,5.531,14.59l-.934,17.883A34.4,34.4,0,0,0,60.039,311.7l12.324,3.949L2.039,439.113a11.739,11.739,0,0,0,10.813,17.535l58.777-3.043,27.363,52.114a11.735,11.735,0,0,0,10.2,6.277h.2a11.738,11.738,0,0,0,10.2-5.93l71.566-125.648a33.977,33.977,0,0,0,20.367,0L283.09,506.07a11.731,11.731,0,0,0,10.2,5.93h.2a11.729,11.729,0,0,0,10.2-6.277l27.359-52.114,58.781,3.043a11.742,11.742,0,0,0,10.813-17.535ZM109.5,493.473,84.582,446.012,99.3,420.184a7.5,7.5,0,1,0-13.032-7.426L71.551,438.59,18.02,441.363,85.605,322.711a19.4,19.4,0,0,1,3.164,4.8l7.484,16.269a34.35,34.35,0,0,0,19.152,17.8l-11.718,20.578a7.5,7.5,0,1,0,13.035,7.422l14.84-26.051c.609-.074,1.218-.156,1.828-.266l17.64-3.082a19.415,19.415,0,0,1,15.149,3.735l11.894,9.16ZM211.09,364.34c-.027.015-.051.023-.074.039-.039.023-.078.051-.118.074a19.373,19.373,0,0,1-19.117,0c-.039-.023-.074-.051-.117-.074-.023-.016-.047-.024-.07-.039a19.363,19.363,0,0,1-2.071-1.371l-14.187-10.926a34.378,34.378,0,0,0-26.887-6.629l-17.64,3.082a19.3,19.3,0,0,1-3.4.285c-.094,0-.183-.008-.273-.008a19.374,19.374,0,0,1-17.254-11.261L102.4,321.246a34.447,34.447,0,0,0-15.355-16.109c-.016-.008-.027-.02-.043-.028-.043-.023-.086-.043-.125-.062-.16-.082-.32-.164-.48-.242-.039-.02-.07-.035-.109-.051a34.11,34.11,0,0,0-4.613-1.871l-17.051-5.465A19.383,19.383,0,0,1,51.2,277.965l.934-17.883a34.446,34.446,0,0,0-9.82-25.891l-12.56-12.765A19.385,19.385,0,0,1,26.9,197.961l9.137-15.4a34.452,34.452,0,0,0,3.34-27.493L34.19,137.932a19.372,19.372,0,0,1,8.383-22.1l15.246-9.391a34.438,34.438,0,0,0,15.73-22.793L76.922,66.07A19.387,19.387,0,0,1,94.613,50.4l17.864-1.227A34.455,34.455,0,0,0,137,36.3l11.156-14A19.386,19.386,0,0,1,171.1,16.641l16.383,7.211a34.445,34.445,0,0,0,27.7,0l16.386-7.211A19.379,19.379,0,0,1,254.52,22.3l11.16,14A34.441,34.441,0,0,0,290.2,49.168l17.864,1.23a19.379,19.379,0,0,1,17.69,15.672l3.371,17.586a34.459,34.459,0,0,0,15.73,22.789l15.247,9.391a19.374,19.374,0,0,1,8.382,22.1l-5.187,17.14a34.451,34.451,0,0,0,3.34,27.492l9.136,15.4a19.379,19.379,0,0,1-2.851,23.465L360.367,234.2a34.45,34.45,0,0,0-9.82,25.9l.933,17.879a19.383,19.383,0,0,1-13.425,19.453L321,302.883a34.579,34.579,0,0,0-4.613,1.867c-.039.02-.075.035-.11.051l-.484.246c-.039.023-.082.039-.121.062a.263.263,0,0,0-.039.024,34.453,34.453,0,0,0-15.36,16.113l-7.484,16.27a19.369,19.369,0,0,1-17.238,11.257,2.873,2.873,0,0,0-.321.012,19.384,19.384,0,0,1-3.371-.289l-17.636-3.082a34.451,34.451,0,0,0-26.891,6.629l-14.184,10.926A19.151,19.151,0,0,1,211.09,364.34Zm120.039,74.25-14.836-26.043a7.5,7.5,0,1,0-13.032,7.426l14.833,26.039-24.918,47.461L224.6,373.086l11.891-9.16a19.419,19.419,0,0,1,15.152-3.735l17.637,3.082c.61.11,1.223.192,1.832.266l14.832,26.043a7.5,7.5,0,1,0,13.035-7.426L287.27,361.59a34.363,34.363,0,0,0,19.152-17.8l7.484-16.269a19.423,19.423,0,0,1,3.164-4.8l67.586,118.652Zm0,0" fill="#fed265"/>
  </g>
</svg>
