<svg xmlns="http://www.w3.org/2000/svg" width="493.103" height="511.994" viewBox="0 0 493.103 511.994">
  <g id="XMLID_1142_" transform="translate(-9.445)">
    <g id="XMLID_639_">
      <path id="XMLID_1130_" d="M502.442,315.034a38.3,38.3,0,0,0-65.27-24.2L404.734,323.27a93.928,93.928,0,0,1-54.526,26.917,37.58,37.58,0,0,0-33.628-54.4H255.012a93.5,93.5,0,0,0-63.53-24.653A129.379,129.379,0,0,0,99.4,309.278L69.514,339.16l-6.568-3.792a10,10,0,0,0-13.66,3.66l-38.5,66.684a10,10,0,0,0,3.66,13.66L54.4,442.439a10,10,0,1,0,10-17.32L33.107,407.052l28.5-49.363,140.782,81.28-28.5,49.363-31.556-18.219a10,10,0,1,0-10,17.32l40.216,23.219a9.994,9.994,0,0,0,13.66-3.66l38.5-66.684a9.992,9.992,0,0,0,1.036-7.416H338.3a156.209,156.209,0,0,0,111.187-46.055l41.842-41.843a38.263,38.263,0,0,0,11.109-29.96ZM477.19,330.853,435.348,372.7A136.342,136.342,0,0,1,338.3,412.9H197.222L87.446,349.513l26.092-26.092a109.509,109.509,0,0,1,77.945-32.286,73.686,73.686,0,0,1,52.448,21.725A10,10,0,0,0,251,315.789h65.579a17.6,17.6,0,0,1,0,35.2H240.562a10,10,0,0,0,0,20h97.245a113.9,113.9,0,0,0,81.069-33.58l32.438-32.437a18.3,18.3,0,1,1,25.878,25.878Z" fill="#fed265"/>
      <path id="XMLID_1133_" d="M207.949,144.067l44.619,32.27-17.092,52.214a20.732,20.732,0,0,0,31.926,23.2l44.377-32.391,44.377,32.391a20.732,20.732,0,0,0,31.927-23.2l-17.092-52.214,44.619-32.27a20.732,20.732,0,0,0-12.15-37.531H348.374L331.506,54.354a20.733,20.733,0,0,0-39.454,0l-16.868,52.183H220.1a20.731,20.731,0,0,0-12.149,37.53ZM219.4,127.043c.164-.506.387-.506.7-.506h62.363a10,10,0,0,0,9.515-6.924l19.106-59.106c.1-.294.164-.507.7-.507s.6.213.7.507l19.106,59.106a10,10,0,0,0,9.515,6.924h62.363c.309,0,.533,0,.7.507s-.017.637-.268.818l-50.533,36.546a10,10,0,0,0-3.644,11.214l19.362,59.151c.1.294.166.506-.265.819a.585.585,0,0,1-.862,0L317.673,198.9a10,10,0,0,0-11.791,0L255.61,235.591a.585.585,0,0,1-.862,0c-.431-.313-.361-.525-.265-.819l19.362-59.151a10,10,0,0,0-3.644-11.214l-50.533-36.546c-.249-.181-.43-.312-.266-.819Z" fill="#fed265"/>
      <path id="XMLID_1148_" d="M389.887,37h7v7a10,10,0,0,0,20,0V37h7a10,10,0,0,0,0-20h-7V10a10,10,0,1,0-20,0v7h-7a10,10,0,0,0,0,20Z" fill="#fed265"/>
      <path id="XMLID_1155_" d="M135.332,206.333h7v7a10,10,0,0,0,20,0v-7h7a10,10,0,0,0,0-20h-7v-7a10,10,0,0,0-20,0v7h-7a10,10,0,0,0,0,20Z" fill="#fed265"/>
      <path id="XMLID_1156_" d="M98.368,446.28a9.987,9.987,0,1,0,7.07,2.92,9.987,9.987,0,0,0-7.07-2.92Z" fill="#fed265"/>
    </g>
  </g>
</svg>
