<svg xmlns="http://www.w3.org/2000/svg" width="460.328" height="366.306" viewBox="0 0 460.328 366.306">
  <g id="residential_icon" transform="translate(0.013 -46.994)">
    <g id="Group_1" data-name="Group 1">
      <path id="Path_1" data-name="Path 1" d="M230.149,120.939,65.986,256.274a3.879,3.879,0,0,1-.144.855,3.909,3.909,0,0,0-.144.852V395.022A18.54,18.54,0,0,0,83.971,413.3H193.6V303.664h73.1V413.3H376.327a18.558,18.558,0,0,0,18.279-18.282V257.981a4.018,4.018,0,0,0-.288-1.707Z" fill="#fed265"/>
      <path id="Path_2" data-name="Path 2" d="M457.122,225.438,394.6,173.476V56.989a8.8,8.8,0,0,0-9.137-9.135H330.647a8.789,8.789,0,0,0-9.136,9.135v55.673L251.849,54.417a35.418,35.418,0,0,0-43.392,0L3.172,225.438a8.292,8.292,0,0,0-3.14,6.136,9.245,9.245,0,0,0,2,6.713l17.7,21.128a9.738,9.738,0,0,0,6,3.142,10.612,10.612,0,0,0,6.855-2L230.149,95.817l197.57,164.741a8.8,8.8,0,0,0,6,1.991h.858a9.75,9.75,0,0,0,6-3.138l17.7-21.125a9.241,9.241,0,0,0,1.991-6.716A8.319,8.319,0,0,0,457.122,225.438Z" fill="#fed265"/>
    </g>
  </g>
</svg>
